<svg xmlns="http://www.w3.org/2000/svg" xmlns:xlink="http://www.w3.org/1999/xlink" width="500" zoomAndPan="magnify" viewBox="0 0 375 374.999991" height="500" preserveAspectRatio="xMidYMid meet" version="1.0"><defs><g/><clipPath id="fd0bfcd165"><path d="M 103.394531 127.058594 L 129.109375 127.058594 L 129.109375 254.382812 L 103.394531 254.382812 Z M 103.394531 127.058594 " clip-rule="nonzero"/></clipPath></defs><g fill="#000000" fill-opacity="1"><g transform="translate(47.242729, 237.729549)"><g><path d="M 30.8125 1.015625 C 20.875 1.015625 13.695312 -1.441406 9.28125 -6.359375 C 4.875 -11.285156 2.671875 -19.222656 2.671875 -30.171875 L 2.671875 -40.875 L 24.1875 -40.875 L 24.1875 -27.25 C 24.1875 -21.8125 25.925781 -19.09375 29.40625 -19.09375 C 31.363281 -19.09375 32.722656 -19.664062 33.484375 -20.8125 C 34.242188 -21.957031 34.625 -23.890625 34.625 -26.609375 C 34.625 -30.171875 34.195312 -33.117188 33.34375 -35.453125 C 32.5 -37.785156 31.421875 -39.738281 30.109375 -41.3125 C 28.796875 -42.882812 26.441406 -45.328125 23.046875 -48.640625 L 13.625 -58.046875 C 6.320312 -65.179688 2.671875 -73.078125 2.671875 -81.734375 C 2.671875 -91.066406 4.8125 -98.171875 9.09375 -103.046875 C 13.382812 -107.929688 19.644531 -110.375 27.875 -110.375 C 37.726562 -110.375 44.816406 -107.765625 49.140625 -102.546875 C 53.472656 -97.328125 55.640625 -89.160156 55.640625 -78.046875 L 33.359375 -78.046875 L 33.234375 -85.546875 C 33.234375 -86.992188 32.828125 -88.140625 32.015625 -88.984375 C 31.210938 -89.835938 30.085938 -90.265625 28.640625 -90.265625 C 26.941406 -90.265625 25.664062 -89.796875 24.8125 -88.859375 C 23.96875 -87.929688 23.546875 -86.660156 23.546875 -85.046875 C 23.546875 -81.484375 25.582031 -77.789062 29.65625 -73.96875 L 42.390625 -61.75 C 45.359375 -58.863281 47.816406 -56.125 49.765625 -53.53125 C 51.722656 -50.945312 53.296875 -47.890625 54.484375 -44.359375 C 55.671875 -40.835938 56.265625 -36.660156 56.265625 -31.828125 C 56.265625 -21.046875 54.289062 -12.875 50.34375 -7.3125 C 46.40625 -1.757812 39.894531 1.015625 30.8125 1.015625 Z M 30.8125 1.015625 "/></g></g></g><g fill="#000000" fill-opacity="1"><g transform="translate(98.933284, 237.729549)"><g><path d="M 4.453125 -110 L 27.375 -110 L 27.375 -84.03125 C 29.75 -90.820312 34.289062 -94.21875 41 -94.21875 C 47.28125 -94.21875 52.03125 -92.222656 55.25 -88.234375 C 58.476562 -84.242188 60.09375 -78.765625 60.09375 -71.796875 L 60.09375 0 L 37.8125 0 L 37.8125 -70.40625 C 37.8125 -72.4375 37.34375 -74.085938 36.40625 -75.359375 C 35.476562 -76.640625 34.125 -77.28125 32.34375 -77.28125 C 30.8125 -77.28125 29.597656 -76.617188 28.703125 -75.296875 C 27.816406 -73.984375 27.375 -72.394531 27.375 -70.53125 L 27.375 0 L 4.453125 0 Z M 4.453125 -110 "/></g></g></g><g fill="#000000" fill-opacity="1"><g transform="translate(156.225833, 237.729549)"><g><path d="M 31.578125 1.015625 C 12.984375 1.015625 3.6875 -8.613281 3.6875 -27.875 L 3.6875 -65.3125 C 3.6875 -74.132812 6.171875 -81.15625 11.140625 -86.375 C 16.109375 -91.601562 22.921875 -94.21875 31.578125 -94.21875 C 40.234375 -94.21875 47.039062 -91.601562 52 -86.375 C 56.96875 -81.15625 59.453125 -74.132812 59.453125 -65.3125 L 59.453125 -27.875 C 59.453125 -8.613281 50.160156 1.015625 31.578125 1.015625 Z M 31.578125 -16.171875 C 33.359375 -16.171875 34.671875 -16.804688 35.515625 -18.078125 C 36.367188 -19.347656 36.796875 -21.085938 36.796875 -23.296875 L 36.796875 -68.875 C 36.796875 -74.3125 35.054688 -77.03125 31.578125 -77.03125 C 28.097656 -77.03125 26.359375 -74.3125 26.359375 -68.875 L 26.359375 -23.296875 C 26.359375 -21.085938 26.78125 -19.347656 27.625 -18.078125 C 28.476562 -16.804688 29.796875 -16.171875 31.578125 -16.171875 Z M 11.078125 -101.71875 L 11.078125 -111.140625 L 51.5625 -111.140625 L 51.5625 -101.71875 Z M 11.078125 -101.71875 "/></g></g></g><g fill="#000000" fill-opacity="1"><g transform="translate(212.499835, 237.729549)"><g><path d="M 2.671875 1.40625 L 13.375 1.40625 C 14.894531 1.40625 15.65625 0.765625 15.65625 -0.515625 C 15.65625 -1.109375 15.613281 -1.570312 15.53125 -1.90625 L 1.015625 -93.1875 L 22.28125 -93.1875 L 26.484375 -47.734375 L 28.515625 -24.578125 L 30.9375 -47.734375 L 35.90625 -93.1875 L 57.296875 -93.1875 L 39.96875 4.84375 C 39.375 8.488281 38.164062 11.179688 36.34375 12.921875 C 34.519531 14.660156 31.65625 15.53125 27.75 15.53125 L 2.671875 15.53125 Z M 2.671875 1.40625 "/></g></g></g><g fill="#000000" fill-opacity="1"><g transform="translate(264.190389, 237.729549)"><g><path d="M 22.40625 1.015625 C 15.445312 1.015625 10.671875 -1.0625 8.078125 -5.21875 C 5.492188 -9.375 4.203125 -15.570312 4.203125 -23.8125 L 4.203125 -93.1875 L 26.609375 -93.1875 L 26.609375 -28.265625 C 26.609375 -27.671875 26.609375 -26.078125 26.609375 -23.484375 C 26.609375 -20.898438 27.007812 -19.078125 27.8125 -18.015625 C 28.625 -16.953125 29.878906 -16.421875 31.578125 -16.421875 C 33.867188 -16.421875 35.3125 -17.375 35.90625 -19.28125 C 36.5 -21.195312 36.796875 -23.9375 36.796875 -27.5 L 36.796875 -28.265625 L 36.921875 -93.1875 L 59.078125 -93.1875 L 59.078125 0 L 36.796875 0 L 36.796875 -9.9375 C 35.265625 -6.03125 33.476562 -3.226562 31.4375 -1.53125 C 29.40625 0.164062 26.394531 1.015625 22.40625 1.015625 Z M 22.40625 1.015625 "/></g></g></g><g clip-path="url(#fd0bfcd165)"><path fill="#000000" d="M 60.84375 266.910156 L 60.84375 -145.035156 C 83.71875 -145.035156 106.597656 -145.035156 129.476562 -145.035156 C 129.476562 -7.722656 129.476562 129.59375 129.476562 266.910156 C 106.597656 266.910156 83.71875 266.910156 60.84375 266.910156 " fill-opacity="1" fill-rule="nonzero"/></g><g fill="#f8b75b" fill-opacity="1"><g transform="translate(124.494774, 244.981677)"><g><path d="M -17.921875 -0.796875 L -17.921875 -6.296875 C -17.921875 -7.171875 -17.722656 -7.847656 -17.328125 -8.328125 C -16.929688 -8.804688 -16.375 -9.128906 -15.65625 -9.296875 C -14.9375 -9.460938 -14.019531 -9.546875 -12.90625 -9.546875 C -11.894531 -9.546875 -11.101562 -9.414062 -10.53125 -9.15625 C -9.957031 -8.894531 -9.5625 -8.4375 -9.34375 -7.78125 C -9.226562 -8.320312 -8.957031 -8.710938 -8.53125 -8.953125 C -8.101562 -9.203125 -7.519531 -9.328125 -6.78125 -9.328125 L 0 -9.28125 L 0 -5.78125 L -7.015625 -5.78125 C -7.515625 -5.78125 -7.832031 -5.679688 -7.96875 -5.484375 C -8.101562 -5.285156 -8.171875 -4.929688 -8.171875 -4.421875 L 0 -4.421875 L 0 -0.796875 Z M -11.28125 -5.296875 C -11.28125 -5.796875 -11.820312 -6.046875 -12.90625 -6.046875 C -13.382812 -6.046875 -13.738281 -6.023438 -13.96875 -5.984375 C -14.207031 -5.941406 -14.375 -5.863281 -14.46875 -5.75 C -14.5625 -5.644531 -14.609375 -5.488281 -14.609375 -5.28125 L -14.609375 -4.4375 L -11.28125 -4.4375 Z M -11.28125 -5.296875 "/></g></g></g><g fill="#f8b75b" fill-opacity="1"><g transform="translate(124.494774, 236.181371)"><g><path d="M 0.171875 -3.5 C 0.171875 -2.320312 -0.21875 -1.515625 -1 -1.078125 C -1.789062 -0.640625 -2.914062 -0.421875 -4.375 -0.421875 C -5.570312 -0.421875 -6.488281 -0.578125 -7.125 -0.890625 C -7.769531 -1.203125 -8.238281 -1.632812 -8.53125 -2.1875 C -8.832031 -2.75 -9.164062 -3.597656 -9.53125 -4.734375 L -9.859375 -5.734375 L -11.4375 -5.734375 C -11.832031 -5.734375 -12.140625 -5.648438 -12.359375 -5.484375 C -12.578125 -5.328125 -12.6875 -5.140625 -12.6875 -4.921875 C -12.6875 -4.722656 -12.59375 -4.550781 -12.40625 -4.40625 C -12.226562 -4.257812 -11.988281 -4.1875 -11.6875 -4.1875 L -10.765625 -4.1875 L -10.765625 -0.640625 L -11.265625 -0.640625 C -12.765625 -0.640625 -13.832031 -0.988281 -14.46875 -1.6875 C -15.113281 -2.394531 -15.4375 -3.539062 -15.4375 -5.125 C -15.4375 -6.394531 -15.101562 -7.425781 -14.4375 -8.21875 C -13.78125 -9.007812 -12.847656 -9.40625 -11.640625 -9.40625 L 0 -9.40625 L 0 -5.78125 L -1.8125 -5.78125 C -1.1875 -5.59375 -0.695312 -5.300781 -0.34375 -4.90625 C 0 -4.507812 0.171875 -4.039062 0.171875 -3.5 Z M -2.671875 -4.9375 C -2.671875 -5.21875 -2.785156 -5.414062 -3.015625 -5.53125 C -3.242188 -5.65625 -3.523438 -5.71875 -3.859375 -5.71875 L -8.109375 -5.71875 C -7.898438 -5.175781 -7.632812 -4.773438 -7.3125 -4.515625 C -7 -4.253906 -6.554688 -4.125 -5.984375 -4.125 L -4.03125 -4.125 C -3.125 -4.125 -2.671875 -4.394531 -2.671875 -4.9375 Z M -2.671875 -4.9375 "/></g></g></g><g fill="#f8b75b" fill-opacity="1"><g transform="translate(124.494774, 227.255944)"><g><path d="M -15.265625 -0.734375 L -15.265625 -4.296875 L -13.5 -4.296875 C -14.144531 -4.460938 -14.628906 -4.742188 -14.953125 -5.140625 C -15.273438 -5.546875 -15.4375 -6.117188 -15.4375 -6.859375 C -15.4375 -7.460938 -15.300781 -7.984375 -15.03125 -8.421875 C -14.757812 -8.859375 -14.382812 -9.164062 -13.90625 -9.34375 C -14.4375 -9.644531 -14.820312 -9.984375 -15.0625 -10.359375 C -15.3125 -10.742188 -15.4375 -11.269531 -15.4375 -11.9375 C -15.4375 -13.125 -15.070312 -13.953125 -14.34375 -14.421875 C -13.613281 -14.890625 -12.550781 -15.125 -11.15625 -15.125 L 0 -15.078125 L 0 -11.40625 L -11.21875 -11.40625 C -12.207031 -11.40625 -12.703125 -11.15625 -12.703125 -10.65625 C -12.703125 -10.3125 -12.53125 -10.0625 -12.1875 -9.90625 C -11.851562 -9.75 -11.445312 -9.671875 -10.96875 -9.671875 L 0 -9.671875 L 0 -6.03125 L -11.21875 -6.03125 C -11.65625 -6.03125 -12.003906 -5.984375 -12.265625 -5.890625 C -12.523438 -5.796875 -12.65625 -5.601562 -12.65625 -5.3125 C -12.65625 -4.9375 -12.472656 -4.671875 -12.109375 -4.515625 C -11.742188 -4.367188 -11.300781 -4.296875 -10.78125 -4.296875 L 0 -4.296875 L 0 -0.734375 Z M -15.265625 -0.734375 "/></g></g></g><g fill="#f8b75b" fill-opacity="1"><g transform="translate(124.494774, 212.595546)"><g><path d="M 0.171875 -5 C 0.171875 -3.4375 -0.257812 -2.3125 -1.125 -1.625 C -1.988281 -0.945312 -3.273438 -0.609375 -4.984375 -0.609375 L -11.125 -0.609375 C -12.519531 -0.609375 -13.585938 -1.007812 -14.328125 -1.8125 C -15.066406 -2.625 -15.4375 -3.75 -15.4375 -5.1875 C -15.4375 -8.125 -14 -9.59375 -11.125 -9.59375 L -10.015625 -9.59375 C -8.898438 -9.59375 -7.992188 -9.578125 -7.296875 -9.546875 L -7.296875 -4.25 L -4.34375 -4.25 C -3.8125 -4.25 -3.394531 -4.304688 -3.09375 -4.421875 C -2.800781 -4.535156 -2.65625 -4.769531 -2.65625 -5.125 C -2.65625 -5.40625 -2.738281 -5.601562 -2.90625 -5.71875 C -3.070312 -5.84375 -3.257812 -5.914062 -3.46875 -5.9375 C -3.6875 -5.957031 -4.003906 -5.96875 -4.421875 -5.96875 L -5.90625 -5.96875 L -5.90625 -9.59375 L -5.03125 -9.59375 C -3.25 -9.59375 -1.9375 -9.25 -1.09375 -8.5625 C -0.25 -7.875 0.171875 -6.6875 0.171875 -5 Z M -9.109375 -5.96875 L -11.078125 -5.96875 C -12.171875 -5.96875 -12.71875 -5.695312 -12.71875 -5.15625 C -12.71875 -4.539062 -12.171875 -4.234375 -11.078125 -4.234375 L -9.109375 -4.234375 Z M -9.109375 -5.96875 "/></g></g></g><g fill="#f8b75b" fill-opacity="1"><g transform="translate(124.494774, 203.565843)"><g><path d="M -15.265625 -0.734375 L -15.265625 -4.375 L -13.328125 -4.375 C -13.953125 -4.53125 -14.457031 -4.796875 -14.84375 -5.171875 C -15.238281 -5.546875 -15.4375 -6.046875 -15.4375 -6.671875 C -15.4375 -7.703125 -15.117188 -8.460938 -14.484375 -8.953125 C -13.847656 -9.453125 -12.945312 -9.703125 -11.78125 -9.703125 L 0 -9.703125 L 0 -6.109375 L -11.40625 -6.109375 C -11.738281 -6.109375 -12.023438 -6.039062 -12.265625 -5.90625 C -12.503906 -5.78125 -12.625 -5.578125 -12.625 -5.296875 C -12.625 -4.921875 -12.453125 -4.671875 -12.109375 -4.546875 C -11.765625 -4.429688 -11.3125 -4.375 -10.75 -4.375 L 0 -4.375 L 0 -0.734375 Z M -15.265625 -0.734375 "/></g></g></g><g fill="#f8b75b" fill-opacity="1"><g transform="translate(124.494774, 194.30674)"><g/></g></g><g fill="#f8b75b" fill-opacity="1"><g transform="translate(124.494774, 190.574057)"><g><path d="M 0.203125 -3.625 C 0.203125 -2.550781 -0.175781 -1.738281 -0.9375 -1.1875 C -1.707031 -0.632812 -2.703125 -0.359375 -3.921875 -0.359375 C -5.285156 -0.359375 -6.378906 -0.550781 -7.203125 -0.9375 C -8.035156 -1.320312 -8.765625 -1.9375 -9.390625 -2.78125 C -10.722656 -2.09375 -11.875 -1.75 -12.84375 -1.75 C -13.863281 -1.75 -14.660156 -2.078125 -15.234375 -2.734375 C -15.816406 -3.398438 -16.109375 -4.253906 -16.109375 -5.296875 C -16.109375 -6.328125 -15.832031 -7.171875 -15.28125 -7.828125 C -14.726562 -8.492188 -13.957031 -8.828125 -12.96875 -8.828125 C -11.53125 -8.828125 -10.175781 -8.023438 -8.90625 -6.421875 L -7.390625 -7.078125 C -8.410156 -7.460938 -9.207031 -8.046875 -9.78125 -8.828125 L -7.578125 -10.234375 C -6.929688 -9.421875 -5.875 -8.753906 -4.40625 -8.234375 L 0 -10.046875 L 0 -6.59375 L -0.984375 -6.21875 C -0.628906 -5.925781 -0.34375 -5.550781 -0.125 -5.09375 C 0.09375 -4.644531 0.203125 -4.15625 0.203125 -3.625 Z M -11.5 -5.671875 C -11.644531 -5.804688 -11.859375 -5.929688 -12.140625 -6.046875 C -12.429688 -6.160156 -12.707031 -6.21875 -12.96875 -6.21875 C -13.382812 -6.21875 -13.59375 -6.015625 -13.59375 -5.609375 C -13.59375 -5.441406 -13.535156 -5.304688 -13.421875 -5.203125 C -13.304688 -5.109375 -13.15625 -5.0625 -12.96875 -5.0625 C -12.613281 -5.0625 -12.0625 -5.207031 -11.3125 -5.5 Z M -2.40625 -4.1875 C -2.40625 -4.457031 -2.503906 -4.679688 -2.703125 -4.859375 C -2.898438 -5.035156 -3.132812 -5.15625 -3.40625 -5.21875 L -6.359375 -3.984375 L -6.171875 -3.859375 C -6.003906 -3.742188 -5.738281 -3.648438 -5.375 -3.578125 C -5.019531 -3.515625 -4.664062 -3.484375 -4.3125 -3.484375 L -4.21875 -3.484375 C -3.675781 -3.484375 -3.238281 -3.523438 -2.90625 -3.609375 C -2.570312 -3.691406 -2.40625 -3.882812 -2.40625 -4.1875 Z M -2.40625 -4.1875 "/></g></g></g><g fill="#f8b75b" fill-opacity="1"><g transform="translate(124.494774, 181.189824)"><g/></g></g><g fill="#f8b75b" fill-opacity="1"><g transform="translate(124.494774, 177.457141)"><g><path d="M 0.171875 -5.046875 C 0.171875 -3.421875 -0.226562 -2.242188 -1.03125 -1.515625 C -1.84375 -0.796875 -3.144531 -0.4375 -4.9375 -0.4375 L -6.703125 -0.4375 L -6.703125 -3.96875 L -4.46875 -3.96875 C -3.570312 -3.96875 -3.125 -4.25 -3.125 -4.8125 C -3.125 -5.132812 -3.21875 -5.359375 -3.40625 -5.484375 C -3.59375 -5.609375 -3.910156 -5.671875 -4.359375 -5.671875 C -4.941406 -5.671875 -5.425781 -5.597656 -5.8125 -5.453125 C -6.195312 -5.316406 -6.515625 -5.140625 -6.765625 -4.921875 C -7.023438 -4.710938 -7.425781 -4.332031 -7.96875 -3.78125 L -9.515625 -2.234375 C -10.679688 -1.035156 -11.972656 -0.4375 -13.390625 -0.4375 C -14.921875 -0.4375 -16.082031 -0.785156 -16.875 -1.484375 C -17.675781 -2.191406 -18.078125 -3.21875 -18.078125 -4.5625 C -18.078125 -6.175781 -17.648438 -7.335938 -16.796875 -8.046875 C -15.941406 -8.753906 -14.601562 -9.109375 -12.78125 -9.109375 L -12.78125 -5.46875 L -14.015625 -5.4375 C -14.253906 -5.4375 -14.441406 -5.367188 -14.578125 -5.234375 C -14.722656 -5.109375 -14.796875 -4.925781 -14.796875 -4.6875 C -14.796875 -4.414062 -14.71875 -4.207031 -14.5625 -4.0625 C -14.40625 -3.925781 -14.195312 -3.859375 -13.9375 -3.859375 C -13.351562 -3.859375 -12.75 -4.191406 -12.125 -4.859375 L -10.109375 -6.953125 C -9.640625 -7.429688 -9.191406 -7.832031 -8.765625 -8.15625 C -8.347656 -8.476562 -7.847656 -8.734375 -7.265625 -8.921875 C -6.691406 -9.117188 -6.007812 -9.21875 -5.21875 -9.21875 C -3.445312 -9.21875 -2.101562 -8.894531 -1.1875 -8.25 C -0.28125 -7.601562 0.171875 -6.535156 0.171875 -5.046875 Z M 0.171875 -5.046875 "/></g></g></g><g fill="#f8b75b" fill-opacity="1"><g transform="translate(124.494774, 168.990506)"><g><path d="M 0.171875 -3.671875 C 0.171875 -2.523438 -0.164062 -1.738281 -0.84375 -1.3125 C -1.53125 -0.894531 -2.550781 -0.6875 -3.90625 -0.6875 L -15.265625 -0.6875 L -15.265625 -4.359375 L -4.625 -4.359375 C -4.53125 -4.359375 -4.269531 -4.359375 -3.84375 -4.359375 C -3.425781 -4.359375 -3.128906 -4.421875 -2.953125 -4.546875 C -2.773438 -4.679688 -2.6875 -4.890625 -2.6875 -5.171875 C -2.6875 -5.546875 -2.84375 -5.78125 -3.15625 -5.875 C -3.46875 -5.976562 -3.914062 -6.03125 -4.5 -6.03125 L -4.625 -6.03125 L -15.265625 -6.046875 L -15.265625 -9.671875 L 0 -9.671875 L 0 -6.03125 L -1.625 -6.03125 C -0.988281 -5.78125 -0.53125 -5.488281 -0.25 -5.15625 C 0.03125 -4.820312 0.171875 -4.328125 0.171875 -3.671875 Z M 0.171875 -3.671875 "/></g></g></g><g fill="#f8b75b" fill-opacity="1"><g transform="translate(124.494774, 159.731404)"><g><path d="M 0.171875 -4.921875 C 0.171875 -1.898438 -1.359375 -0.390625 -4.421875 -0.390625 L -5.625 -0.421875 L -5.625 -4.0625 L -3.84375 -4.09375 C -3.476562 -4.09375 -3.203125 -4.160156 -3.015625 -4.296875 C -2.828125 -4.429688 -2.734375 -4.660156 -2.734375 -4.984375 C -2.734375 -5.472656 -3.128906 -5.71875 -3.921875 -5.71875 C -4.503906 -5.71875 -4.960938 -5.601562 -5.296875 -5.375 C -5.628906 -5.144531 -5.984375 -4.78125 -6.359375 -4.28125 L -7.859375 -2.34375 C -8.378906 -1.664062 -8.910156 -1.179688 -9.453125 -0.890625 C -10.003906 -0.597656 -10.78125 -0.453125 -11.78125 -0.453125 C -12.5625 -0.453125 -13.226562 -0.65625 -13.78125 -1.0625 C -14.332031 -1.476562 -14.742188 -2.023438 -15.015625 -2.703125 C -15.296875 -3.390625 -15.4375 -4.148438 -15.4375 -4.984375 C -15.4375 -7.941406 -13.960938 -9.421875 -11.015625 -9.421875 L -10.71875 -9.421875 L -10.71875 -5.65625 L -11.3125 -5.65625 C -11.664062 -5.65625 -11.972656 -5.59375 -12.234375 -5.46875 C -12.492188 -5.351562 -12.625 -5.15625 -12.625 -4.875 C -12.625 -4.625 -12.550781 -4.429688 -12.40625 -4.296875 C -12.257812 -4.171875 -12.0625 -4.109375 -11.8125 -4.109375 C -11.25 -4.109375 -10.816406 -4.320312 -10.515625 -4.75 L -8.859375 -7.015625 C -8.265625 -7.816406 -7.613281 -8.429688 -6.90625 -8.859375 C -6.207031 -9.296875 -5.320312 -9.515625 -4.25 -9.515625 C -2.832031 -9.515625 -1.738281 -9.109375 -0.96875 -8.296875 C -0.207031 -7.492188 0.171875 -6.367188 0.171875 -4.921875 Z M 0.171875 -4.921875 "/></g></g></g><g fill="#f8b75b" fill-opacity="1"><g transform="translate(124.494774, 150.972806)"><g><path d="M -18.015625 -0.734375 L -18.015625 -4.484375 L -13.765625 -4.484375 C -14.878906 -4.867188 -15.4375 -5.613281 -15.4375 -6.71875 C -15.4375 -7.75 -15.109375 -8.523438 -14.453125 -9.046875 C -13.796875 -9.578125 -12.898438 -9.84375 -11.765625 -9.84375 L 0 -9.84375 L 0 -6.1875 L -11.53125 -6.1875 C -11.863281 -6.1875 -12.132812 -6.109375 -12.34375 -5.953125 C -12.550781 -5.804688 -12.65625 -5.585938 -12.65625 -5.296875 C -12.65625 -5.046875 -12.546875 -4.847656 -12.328125 -4.703125 C -12.117188 -4.554688 -11.863281 -4.484375 -11.5625 -4.484375 L 0 -4.484375 L 0 -0.734375 Z M -18.015625 -0.734375 "/></g></g></g><g fill="#f8b75b" fill-opacity="1"><g transform="translate(124.494774, 141.588572)"><g><path d="M -16.296875 -0.703125 L -18.84375 -0.703125 L -18.84375 -4.359375 L -16.296875 -4.359375 Z M 0 -0.703125 L -15.265625 -0.703125 L -15.265625 -4.359375 L 0 -4.359375 Z M 0 -0.703125 "/></g></g></g></svg>